<svg width="1014" height="1275" viewBox="0 0 1014 1275" fill="none" xmlns="http://www.w3.org/2000/svg">
  <path d="M499.544 75.7207L499.544 352.919L0.525393 638.301L0.525392 361.255L499.544 75.7207ZM242.658 516.601L7.82588 651.639L242.658 785.918L242.658 516.601ZM257.867 1078.88L500 940.507L500 655.124L257.411 516.601L257.867 1078.88ZM764.339 806.075L264.864 1091.15L506.996 1229.98L1006.02 944.599L764.339 806.075ZM771.639 793.496L771.639 500.081L514.297 352.919L514.297 75.7207L1013.47 361.255L1013.47 932.02L771.639 793.496Z" fill="#FFB300"/>
  <path d="M193.854 92.3145L68.9854 92.3145L68.9854 383.759L193.854 383.759L193.854 92.3145Z" fill="#FFB300"/>
  <path d="M411.162 -4.83939e-07L286.293 0L286.293 291.445L411.162 291.445L411.162 -4.83939e-07Z" fill="#FFB300"/>
  <path d="M793.848 1203.03L918.717 1203.03L918.717 911.58L793.848 911.58L793.848 1203.03Z" fill="#FFB300"/>
  <path d="M607.243 1274.6L732.112 1274.6L732.112 983.153L607.243 983.153L607.243 1274.6Z" fill="#FFB300"/>
  <path d="M323.739 499.438L542.298 628.716L542.298 883.484L723.745 783.456L720.095 526.718L496.822 397.895L323.739 499.438Z" fill="#4DD0E1"/>
</svg>
