<svg width="222" height="174" viewBox="0 0 222 174" fill="none" xmlns="http://www.w3.org/2000/svg">
    <path d="M241.324 117.643C240.559 105.516 216.72 96.1943 205.646 91.1669C188.249 84.1092 169.806 79.2419 151.479 74.5108L156.541 53.8716L224.719 66.4311C229.526 52.2721 232.117 37.2971 235.843 22.811L48.635 -11.6756L37.9586 31.8559L106.281 44.442L101.159 65.3273C-26.6041 50.0336 -35.3013 87.8656 88.1704 118.704L69.7478 193.819L119.795 203.039C126.172 178.085 131.896 152.983 138.349 128.048C145.448 128.548 152.622 129.861 159.788 130.41C172.375 131.512 185.066 131.847 197.71 131.855C209.049 131.195 240.069 130.406 241.324 117.643ZM226.191 114.618C213.868 121.031 180.469 118.254 165.727 116.666C127.432 112.42 89.2806 105.676 52.9882 94.0913C43.231 91.2254 -5.29933 73.9953 24.7723 67.2237C35.0294 65.3544 45.5317 65.6268 55.9454 66.0068C70.7377 66.6553 85.4562 68.1779 100.059 70.3043L93.8664 95.5555C110.444 99.3415 127.002 102.532 143.927 104.817L150.108 79.6139C159.958 80.4642 243.4 102.023 226.191 114.618Z" fill="#31A383"/>
</svg>
